<?xml version="1.0" encoding="UTF-8" standalone="no"?>
<!DOCTYPE svg PUBLIC "-//W3C//DTD SVG 1.1//EN" "http://www.w3.org/Graphics/SVG/1.1/DTD/svg11.dtd">
<svg xmlns="http://www.w3.org/2000/svg" version="1.1" viewBox="0.00 0.00 1448.00 1448.00">
<g stroke-width="2.00" fill="none" stroke-linecap="butt">
<path stroke="#80a6cc" vector-effect="non-scaling-stroke" d="
  M 712.21 737.99
  Q 713.15 737.05 714.13 737.94
  Q 717.51 741.02 721.53 744.97
  C 759.51 782.26 797.10 819.26 831.75 859.74
  Q 844.86 875.07 864.01 900.73
  C 890.48 936.20 914.87 969.90 936.20 1004.31
  Q 961.16 1044.56 983.35 1086.40
  C 986.47 1092.28 989.67 1099.77 993.16 1106.29
  C 1010.58 1138.90 1026.08 1172.59 1040.56 1206.59
  Q 1040.78 1207.11 1041.24 1207.43
  L 1047.32 1211.78
  Q 1047.77 1212.10 1048.31 1212.17
  Q 1053.19 1212.79 1057.94 1214.04
  C 1060.72 1214.78 1063.44 1214.33 1066.32 1214.67
  C 1075.98 1215.81 1083.77 1216.51 1091.72 1210.22
  Q 1124.01 1184.67 1139.53 1171.55
  Q 1148.37 1164.08 1157.55 1157.05
  Q 1195.61 1127.91 1234.23 1099.48
  Q 1250.50 1087.49 1265.08 1073.29
  Q 1265.46 1072.92 1265.46 1072.40
  Q 1265.65 1054.17 1265.28 1035.94
  C 1265.15 1029.80 1259.63 1024.29 1254.53 1021.53
  C 1244.19 1015.93 1234.19 1010.55 1224.26 1003.82
  C 1129.09 939.34 1033.43 875.55 938.47 810.76
  Q 935.50 808.74 928.23 805.15
  Q 927.76 804.92 927.52 804.46
  C 905.29 762.31 883.91 729.97 860.13 693.60
  C 849.28 677.02 836.79 661.42 825.17 645.46
  A 0.73 0.73 0.0 0 1 825.31 644.46
  C 859.87 617.27 895.04 590.50 931.14 565.46
  C 955.88 548.29 980.38 530.40 1005.69 514.10
  Q 1030.38 498.19 1054.85 481.94
  C 1077.36 467.00 1100.40 453.25 1128.17 436.15
  Q 1142.35 427.41 1156.24 420.97
  C 1159.12 419.64 1162.96 415.67 1166.54 413.72
  Q 1189.96 400.97 1212.92 387.40
  C 1215.05 386.14 1218.29 385.77 1220.86 384.18
  C 1225.06 381.59 1229.16 378.82 1233.39 376.30
  C 1238.72 373.12 1240.39 369.33 1240.62 362.87
  C 1240.92 354.33 1242.39 345.36 1238.92 337.29
  C 1236.58 331.84 1230.13 327.74 1225.17 324.34
  Q 1198.42 306.01 1173.13 290.60
  C 1147.15 274.77 1122.00 257.05 1097.06 239.61
  C 1093.41 237.06 1087.14 232.65 1082.69 232.37
  C 1075.05 231.89 1069.56 234.68 1061.67 239.42
  C 1060.46 240.15 1059.53 241.58 1058.26 242.31
  Q 861.03 357.01 704.15 522.29
  A 0.44 0.44 0.0 0 1 703.53 522.31
  C 686.84 506.53 670.97 490.23 654.24 474.87
  C 618.97 442.49 582.67 411.38 545.68 380.98
  Q 497.91 341.71 450.66 310.60
  C 407.88 282.43 374.16 259.49 342.41 240.59
  C 334.23 235.72 329.11 234.65 321.59 240.87
  C 303.83 255.57 277.18 275.71 251.10 296.39
  Q 221.27 320.05 191.29 343.54
  C 183.10 349.95 183.23 356.78 182.71 368.06
  C 182.18 379.70 180.32 388.94 191.59 395.13
  Q 202.63 401.18 213.47 407.59
  C 217.88 410.20 223.28 412.77 228.03 415.63
  Q 235.46 420.12 238.81 421.87
  Q 289.95 448.76 339.76 478.04
  Q 341.86 479.28 347.22 481.36
  C 352.13 483.27 356.09 486.92 360.81 489.39
  C 380.85 499.88 400.37 511.64 420.15 522.65
  Q 420.58 522.89 420.84 523.31
  C 424.49 529.37 428.83 528.41 434.15 531.43
  Q 481.75 558.48 528.10 587.64
  C 550.47 601.72 571.92 617.64 593.25 633.26
  Q 597.79 636.59 602.26 640.39
  Q 602.67 640.74 602.35 641.17
  C 573.11 680.17 544.96 719.40 518.74 760.51
  C 511.71 771.53 503.55 781.29 496.66 792.68
  Q 484.88 812.15 473.05 831.61
  Q 469.74 837.07 466.45 839.21
  Q 427.89 864.34 393.06 891.56
  Q 324.41 945.20 265.56 990.06
  C 245.60 1005.28 214.41 1030.56 188.04 1049.80
  C 182.01 1054.20 183.05 1061.26 182.87 1067.57
  Q 182.87 1067.61 182.44 1073.92
  C 181.88 1082.39 184.59 1093.12 192.05 1098.19
  Q 249.33 1137.09 306.64 1175.96
  C 320.74 1185.53 334.99 1195.85 349.29 1205.63
  C 353.27 1208.35 358.29 1211.60 361.82 1213.18
  C 371.52 1217.54 383.12 1213.55 389.08 1205.81
  Q 391.64 1202.48 394.27 1194.59
  C 397.97 1183.50 401.46 1172.51 406.21 1161.76
  Q 417.21 1136.82 428.45 1111.99
  C 447.54 1069.82 469.98 1031.28 494.41 991.42
  Q 502.73 977.86 511.80 964.81
  Q 560.08 895.35 616.80 832.68
  Q 623.17 825.64 630.56 818.17
  Q 663.42 784.96 697.20 752.70
  Q 704.25 745.97 712.21 737.99"
/>
<path stroke="#80a6cc" vector-effect="non-scaling-stroke" d="
  M 1189.03 332.83
  Q 1183.29 329.04 1178.14 325.88
  C 1144.56 305.32 1111.20 283.87 1079.97 259.84
  Q 1079.61 259.57 1079.27 259.87
  C 1078.64 260.42 1078.03 261.22 1077.30 261.65
  C 947.30 337.50 829.80 428.71 725.99 537.69
  Q 725.66 538.03 725.68 538.50
  Q 725.92 543.79 728.32 546.44
  Q 751.35 571.88 773.88 597.84
  Q 774.21 598.22 774.60 597.90
  Q 784.63 589.61 797.67 580.16
  C 835.79 552.55 869.97 527.13 903.96 504.31
  C 935.53 483.12 966.79 460.86 998.98 440.68
  Q 1044.63 412.06 1077.20 393.45
  C 1110.37 374.49 1150.24 353.96 1189.01 333.33
  A 0.29 0.29 0.0 0 0 1189.03 332.83"
/>
<path stroke="#80a6cc" vector-effect="non-scaling-stroke" d="
  M 217.72 364.33
  C 260.75 389.46 307.78 414.84 346.39 435.57
  Q 354.94 440.16 363.82 445.37
  Q 396.63 464.62 430.17 482.57
  Q 440.20 487.94 447.72 492.15
  Q 533.14 540.02 618.40 588.18
  Q 627.19 593.14 635.19 598.17
  Q 636.30 598.87 637.14 597.86
  Q 661.85 568.29 687.83 539.82
  Q 688.03 539.60 687.82 539.39
  C 633.31 484.05 580.35 436.83 515.52 383.32
  Q 507.95 377.08 499.66 371.15
  C 480.81 357.66 462.20 343.54 442.85 330.79
  Q 401.43 303.48 359.42 277.08
  Q 346.57 269.00 332.92 262.25
  A 0.63 0.61 -51.2 0 0 332.26 262.33
  Q 307.09 283.02 281.35 303.08
  C 272.22 310.20 258.30 319.45 248.57 328.31
  Q 232.75 342.71 216.60 356.71
  Q 216.18 357.07 216.26 357.63
  L 217.09 363.40
  Q 217.18 364.02 217.72 364.33"
/>
<path stroke="#80a6cc" vector-effect="non-scaling-stroke" d="
  M 661.21 611.54
  Q 687.40 629.55 712.62 648.92
  A 1.32 1.31 -47.9 0 0 714.33 648.83
  Q 733.39 630.77 753.72 614.15
  Q 754.39 613.60 753.79 612.98
  L 704.16 561.70
  Q 703.72 561.25 703.31 561.72
  L 661.04 610.14
  Q 660.34 610.94 661.21 611.54"
/>
<path stroke="#80a6cc" vector-effect="non-scaling-stroke" d="
  M 764.48 695.92
  Q 772.64 702.73 778.62 708.63
  Q 827.65 757.01 873.54 808.35
  C 893.67 830.87 912.33 855.18 930.32 879.44
  C 939.26 891.50 950.42 904.27 959.16 918.02
  Q 959.27 918.19 959.19 918.01
  Q 949.95 895.65 944.44 886.06
  C 924.58 851.49 907.23 815.30 886.51 781.26
  C 875.83 763.72 865.45 745.71 853.69 728.87
  C 837.94 706.32 823.23 682.70 806.16 661.15
  Q 805.81 660.72 805.40 661.09
  Q 785.60 678.85 764.50 695.04
  A 0.56 0.56 0.0 0 0 764.48 695.92"
/>
<path stroke="#80a6cc" vector-effect="non-scaling-stroke" d="
  M 663.69 691.77
  L 627.68 663.57
  Q 627.27 663.25 626.93 663.64
  Q 592.37 703.83 560.31 746.05
  Q 555.04 752.99 548.16 763.67
  Q 498.74 840.31 459.42 919.95
  Q 458.75 921.30 459.64 920.08
  Q 486.49 883.13 509.57 854.82
  Q 520.60 841.28 549.38 806.97
  Q 556.32 798.69 562.53 791.91
  Q 610.53 739.43 663.71 692.56
  A 0.51 0.51 0.0 0 0 663.69 691.77"
/>
<path stroke="#80a6cc" vector-effect="non-scaling-stroke" d="
  M 1227.56 1038.02
  Q 1091.92 945.19 955.95 852.77
  Q 955.12 852.21 955.62 853.08
  Q 960.89 862.20 965.81 871.45
  C 978.63 895.57 988.57 921.42 1000.72 945.95
  C 1010.12 964.93 1017.07 982.95 1025.68 1001.26
  C 1035.93 1023.06 1043.58 1045.89 1053.19 1067.98
  Q 1071.84 1110.88 1090.10 1153.97
  Q 1090.28 1154.40 1090.65 1154.11
  C 1112.28 1136.90 1134.35 1120.30 1155.80 1102.87
  C 1179.10 1083.96 1204.14 1066.75 1226.43 1046.65
  C 1228.64 1044.66 1230.35 1039.93 1227.56 1038.02"
/>
<path stroke="#80a6cc" vector-effect="non-scaling-stroke" d="
  M 220.74 1075.28
  C 258.85 1102.02 297.40 1128.26 335.84 1154.58
  Q 336.29 1154.89 336.49 1154.38
  Q 343.62 1136.27 348.84 1120.57
  Q 381.62 1021.82 425.67 928.97
  C 432.51 914.56 439.03 898.38 447.32 883.52
  Q 447.79 882.68 447.01 883.24
  C 387.75 925.73 331.19 971.66 273.00 1015.97
  C 259.08 1026.57 245.46 1038.48 231.06 1049.07
  C 224.26 1054.07 207.91 1066.28 220.74 1075.28"
/>
</g>
<path fill="#004c99" d="
  M 0.00 0.00
  L 1448.00 0.00
  L 1448.00 1448.00
  L 0.00 1448.00
  L 0.00 0.00
  Z
  M 712.21 737.99
  Q 713.15 737.05 714.13 737.94
  Q 717.51 741.02 721.53 744.97
  C 759.51 782.26 797.10 819.26 831.75 859.74
  Q 844.86 875.07 864.01 900.73
  C 890.48 936.20 914.87 969.90 936.20 1004.31
  Q 961.16 1044.56 983.35 1086.40
  C 986.47 1092.28 989.67 1099.77 993.16 1106.29
  C 1010.58 1138.90 1026.08 1172.59 1040.56 1206.59
  Q 1040.78 1207.11 1041.24 1207.43
  L 1047.32 1211.78
  Q 1047.77 1212.10 1048.31 1212.17
  Q 1053.19 1212.79 1057.94 1214.04
  C 1060.72 1214.78 1063.44 1214.33 1066.32 1214.67
  C 1075.98 1215.81 1083.77 1216.51 1091.72 1210.22
  Q 1124.01 1184.67 1139.53 1171.55
  Q 1148.37 1164.08 1157.55 1157.05
  Q 1195.61 1127.91 1234.23 1099.48
  Q 1250.50 1087.49 1265.08 1073.29
  Q 1265.46 1072.92 1265.46 1072.40
  Q 1265.65 1054.17 1265.28 1035.94
  C 1265.15 1029.80 1259.63 1024.29 1254.53 1021.53
  C 1244.19 1015.93 1234.19 1010.55 1224.26 1003.82
  C 1129.09 939.34 1033.43 875.55 938.47 810.76
  Q 935.50 808.74 928.23 805.15
  Q 927.76 804.92 927.52 804.46
  C 905.29 762.31 883.91 729.97 860.13 693.60
  C 849.28 677.02 836.79 661.42 825.17 645.46
  A 0.73 0.73 0.0 0 1 825.31 644.46
  C 859.87 617.27 895.04 590.50 931.14 565.46
  C 955.88 548.29 980.38 530.40 1005.69 514.10
  Q 1030.38 498.19 1054.85 481.94
  C 1077.36 467.00 1100.40 453.25 1128.17 436.15
  Q 1142.35 427.41 1156.24 420.97
  C 1159.12 419.64 1162.96 415.67 1166.54 413.72
  Q 1189.96 400.97 1212.92 387.40
  C 1215.05 386.14 1218.29 385.77 1220.86 384.18
  C 1225.06 381.59 1229.16 378.82 1233.39 376.30
  C 1238.72 373.12 1240.39 369.33 1240.62 362.87
  C 1240.92 354.33 1242.39 345.36 1238.92 337.29
  C 1236.58 331.84 1230.13 327.74 1225.17 324.34
  Q 1198.42 306.01 1173.13 290.60
  C 1147.15 274.77 1122.00 257.05 1097.06 239.61
  C 1093.41 237.06 1087.14 232.65 1082.69 232.37
  C 1075.05 231.89 1069.56 234.68 1061.67 239.42
  C 1060.46 240.15 1059.53 241.58 1058.26 242.31
  Q 861.03 357.01 704.15 522.29
  A 0.44 0.44 0.0 0 1 703.53 522.31
  C 686.84 506.53 670.97 490.23 654.24 474.87
  C 618.97 442.49 582.67 411.38 545.68 380.98
  Q 497.91 341.71 450.66 310.60
  C 407.88 282.43 374.16 259.49 342.41 240.59
  C 334.23 235.72 329.11 234.65 321.59 240.87
  C 303.83 255.57 277.18 275.71 251.10 296.39
  Q 221.27 320.05 191.29 343.54
  C 183.10 349.95 183.23 356.78 182.71 368.06
  C 182.18 379.70 180.32 388.94 191.59 395.13
  Q 202.63 401.18 213.47 407.59
  C 217.88 410.20 223.28 412.77 228.03 415.63
  Q 235.46 420.12 238.81 421.87
  Q 289.95 448.76 339.76 478.04
  Q 341.86 479.28 347.22 481.36
  C 352.13 483.27 356.09 486.92 360.81 489.39
  C 380.85 499.88 400.37 511.64 420.15 522.65
  Q 420.58 522.89 420.84 523.31
  C 424.49 529.37 428.83 528.41 434.15 531.43
  Q 481.75 558.48 528.10 587.64
  C 550.47 601.72 571.92 617.64 593.25 633.26
  Q 597.79 636.59 602.26 640.39
  Q 602.67 640.74 602.35 641.17
  C 573.11 680.17 544.96 719.40 518.74 760.51
  C 511.71 771.53 503.55 781.29 496.66 792.68
  Q 484.88 812.15 473.05 831.61
  Q 469.74 837.07 466.45 839.21
  Q 427.89 864.34 393.06 891.56
  Q 324.41 945.20 265.56 990.06
  C 245.60 1005.28 214.41 1030.56 188.04 1049.80
  C 182.01 1054.20 183.05 1061.26 182.87 1067.57
  Q 182.87 1067.61 182.44 1073.92
  C 181.88 1082.39 184.59 1093.12 192.05 1098.19
  Q 249.33 1137.09 306.64 1175.96
  C 320.74 1185.53 334.99 1195.85 349.29 1205.63
  C 353.27 1208.35 358.29 1211.60 361.82 1213.18
  C 371.52 1217.54 383.12 1213.55 389.08 1205.81
  Q 391.64 1202.48 394.27 1194.59
  C 397.97 1183.50 401.46 1172.51 406.21 1161.76
  Q 417.21 1136.82 428.45 1111.99
  C 447.54 1069.82 469.98 1031.28 494.41 991.42
  Q 502.73 977.86 511.80 964.81
  Q 560.08 895.35 616.80 832.68
  Q 623.17 825.64 630.56 818.17
  Q 663.42 784.96 697.20 752.70
  Q 704.25 745.97 712.21 737.99
  Z"
/>
<path fill="#ffffff" d="
  M 712.21 737.99
  Q 704.25 745.97 697.20 752.70
  Q 663.42 784.96 630.56 818.17
  Q 623.17 825.64 616.80 832.68
  Q 560.08 895.35 511.80 964.81
  Q 502.73 977.86 494.41 991.42
  C 469.98 1031.28 447.54 1069.82 428.45 1111.99
  Q 417.21 1136.82 406.21 1161.76
  C 401.46 1172.51 397.97 1183.50 394.27 1194.59
  Q 391.64 1202.48 389.08 1205.81
  C 383.12 1213.55 371.52 1217.54 361.82 1213.18
  C 358.29 1211.60 353.27 1208.35 349.29 1205.63
  C 334.99 1195.85 320.74 1185.53 306.64 1175.96
  Q 249.33 1137.09 192.05 1098.19
  C 184.59 1093.12 181.88 1082.39 182.44 1073.92
  Q 182.87 1067.61 182.87 1067.57
  C 183.05 1061.26 182.01 1054.20 188.04 1049.80
  C 214.41 1030.56 245.60 1005.28 265.56 990.06
  Q 324.41 945.20 393.06 891.56
  Q 427.89 864.34 466.45 839.21
  Q 469.74 837.07 473.05 831.61
  Q 484.88 812.15 496.66 792.68
  C 503.55 781.29 511.71 771.53 518.74 760.51
  C 544.96 719.40 573.11 680.17 602.35 641.17
  Q 602.67 640.74 602.26 640.39
  Q 597.79 636.59 593.25 633.26
  C 571.92 617.64 550.47 601.72 528.10 587.64
  Q 481.75 558.48 434.15 531.43
  C 428.83 528.41 424.49 529.37 420.84 523.31
  Q 420.58 522.89 420.15 522.65
  C 400.37 511.64 380.85 499.88 360.81 489.39
  C 356.09 486.92 352.13 483.27 347.22 481.36
  Q 341.86 479.28 339.76 478.04
  Q 289.95 448.76 238.81 421.87
  Q 235.46 420.12 228.03 415.63
  C 223.28 412.77 217.88 410.20 213.47 407.59
  Q 202.63 401.18 191.59 395.13
  C 180.32 388.94 182.18 379.70 182.71 368.06
  C 183.23 356.78 183.10 349.95 191.29 343.54
  Q 221.27 320.05 251.10 296.39
  C 277.18 275.71 303.83 255.57 321.59 240.87
  C 329.11 234.65 334.23 235.72 342.41 240.59
  C 374.16 259.49 407.88 282.43 450.66 310.60
  Q 497.91 341.71 545.68 380.98
  C 582.67 411.38 618.97 442.49 654.24 474.87
  C 670.97 490.23 686.84 506.53 703.53 522.31
  A 0.44 0.44 0.0 0 0 704.15 522.29
  Q 861.03 357.01 1058.26 242.31
  C 1059.53 241.58 1060.46 240.15 1061.67 239.42
  C 1069.56 234.68 1075.05 231.89 1082.69 232.37
  C 1087.14 232.65 1093.41 237.06 1097.06 239.61
  C 1122.00 257.05 1147.15 274.77 1173.13 290.60
  Q 1198.42 306.01 1225.17 324.34
  C 1230.13 327.74 1236.58 331.84 1238.92 337.29
  C 1242.39 345.36 1240.92 354.33 1240.62 362.87
  C 1240.39 369.33 1238.72 373.12 1233.39 376.30
  C 1229.16 378.82 1225.06 381.59 1220.86 384.18
  C 1218.29 385.77 1215.05 386.14 1212.92 387.40
  Q 1189.96 400.97 1166.54 413.72
  C 1162.96 415.67 1159.12 419.64 1156.24 420.97
  Q 1142.35 427.41 1128.17 436.15
  C 1100.40 453.25 1077.36 467.00 1054.85 481.94
  Q 1030.38 498.19 1005.69 514.10
  C 980.38 530.40 955.88 548.29 931.14 565.46
  C 895.04 590.50 859.87 617.27 825.31 644.46
  A 0.73 0.73 0.0 0 0 825.17 645.46
  C 836.79 661.42 849.28 677.02 860.13 693.60
  C 883.91 729.97 905.29 762.31 927.52 804.46
  Q 927.76 804.92 928.23 805.15
  Q 935.50 808.74 938.47 810.76
  C 1033.43 875.55 1129.09 939.34 1224.26 1003.82
  C 1234.19 1010.55 1244.19 1015.93 1254.53 1021.53
  C 1259.63 1024.29 1265.15 1029.80 1265.28 1035.94
  Q 1265.65 1054.17 1265.46 1072.40
  Q 1265.46 1072.92 1265.08 1073.29
  Q 1250.50 1087.49 1234.23 1099.48
  Q 1195.61 1127.91 1157.55 1157.05
  Q 1148.37 1164.08 1139.53 1171.55
  Q 1124.01 1184.67 1091.72 1210.22
  C 1083.77 1216.51 1075.98 1215.81 1066.32 1214.67
  C 1063.44 1214.33 1060.72 1214.78 1057.94 1214.04
  Q 1053.19 1212.79 1048.31 1212.17
  Q 1047.77 1212.10 1047.32 1211.78
  L 1041.24 1207.43
  Q 1040.78 1207.11 1040.56 1206.59
  C 1026.08 1172.59 1010.58 1138.90 993.16 1106.29
  C 989.67 1099.77 986.47 1092.28 983.35 1086.40
  Q 961.16 1044.56 936.20 1004.31
  C 914.87 969.90 890.48 936.20 864.01 900.73
  Q 844.86 875.07 831.75 859.74
  C 797.10 819.26 759.51 782.26 721.53 744.97
  Q 717.51 741.02 714.13 737.94
  Q 713.15 737.05 712.21 737.99
  Z
  M 1189.03 332.83
  Q 1183.29 329.04 1178.14 325.88
  C 1144.56 305.32 1111.20 283.87 1079.97 259.84
  Q 1079.61 259.57 1079.27 259.87
  C 1078.64 260.42 1078.03 261.22 1077.30 261.65
  C 947.30 337.50 829.80 428.71 725.99 537.69
  Q 725.66 538.03 725.68 538.50
  Q 725.92 543.79 728.32 546.44
  Q 751.35 571.88 773.88 597.84
  Q 774.21 598.22 774.60 597.90
  Q 784.63 589.61 797.67 580.16
  C 835.79 552.55 869.97 527.13 903.96 504.31
  C 935.53 483.12 966.79 460.86 998.98 440.68
  Q 1044.63 412.06 1077.20 393.45
  C 1110.37 374.49 1150.24 353.96 1189.01 333.33
  A 0.29 0.29 0.0 0 0 1189.03 332.83
  Z
  M 217.72 364.33
  C 260.75 389.46 307.78 414.84 346.39 435.57
  Q 354.94 440.16 363.82 445.37
  Q 396.63 464.62 430.17 482.57
  Q 440.20 487.94 447.72 492.15
  Q 533.14 540.02 618.40 588.18
  Q 627.19 593.14 635.19 598.17
  Q 636.30 598.87 637.14 597.86
  Q 661.85 568.29 687.83 539.82
  Q 688.03 539.60 687.82 539.39
  C 633.31 484.05 580.35 436.83 515.52 383.32
  Q 507.95 377.08 499.66 371.15
  C 480.81 357.66 462.20 343.54 442.85 330.79
  Q 401.43 303.48 359.42 277.08
  Q 346.57 269.00 332.92 262.25
  A 0.63 0.61 -51.2 0 0 332.26 262.33
  Q 307.09 283.02 281.35 303.08
  C 272.22 310.20 258.30 319.45 248.57 328.31
  Q 232.75 342.71 216.60 356.71
  Q 216.18 357.07 216.26 357.63
  L 217.09 363.40
  Q 217.18 364.02 217.72 364.33
  Z
  M 661.21 611.54
  Q 687.40 629.55 712.62 648.92
  A 1.32 1.31 -47.9 0 0 714.33 648.83
  Q 733.39 630.77 753.72 614.15
  Q 754.39 613.60 753.79 612.98
  L 704.16 561.70
  Q 703.72 561.25 703.31 561.72
  L 661.04 610.14
  Q 660.34 610.94 661.21 611.54
  Z
  M 764.48 695.92
  Q 772.64 702.73 778.62 708.63
  Q 827.65 757.01 873.54 808.35
  C 893.67 830.87 912.33 855.18 930.32 879.44
  C 939.26 891.50 950.42 904.27 959.16 918.02
  Q 959.27 918.19 959.19 918.01
  Q 949.95 895.65 944.44 886.06
  C 924.58 851.49 907.23 815.30 886.51 781.26
  C 875.83 763.72 865.45 745.71 853.69 728.87
  C 837.94 706.32 823.23 682.70 806.16 661.15
  Q 805.81 660.72 805.40 661.09
  Q 785.60 678.85 764.50 695.04
  A 0.56 0.56 0.0 0 0 764.48 695.92
  Z
  M 663.69 691.77
  L 627.68 663.57
  Q 627.27 663.25 626.93 663.64
  Q 592.37 703.83 560.31 746.05
  Q 555.04 752.99 548.16 763.67
  Q 498.74 840.31 459.42 919.95
  Q 458.75 921.30 459.64 920.08
  Q 486.49 883.13 509.57 854.82
  Q 520.60 841.28 549.38 806.97
  Q 556.32 798.69 562.53 791.91
  Q 610.53 739.43 663.71 692.56
  A 0.51 0.51 0.0 0 0 663.69 691.77
  Z
  M 1227.56 1038.02
  Q 1091.92 945.19 955.95 852.77
  Q 955.12 852.21 955.62 853.08
  Q 960.89 862.20 965.81 871.45
  C 978.63 895.57 988.57 921.42 1000.72 945.95
  C 1010.12 964.93 1017.07 982.95 1025.68 1001.26
  C 1035.93 1023.06 1043.58 1045.89 1053.19 1067.98
  Q 1071.84 1110.88 1090.10 1153.97
  Q 1090.28 1154.40 1090.65 1154.11
  C 1112.28 1136.90 1134.35 1120.30 1155.80 1102.87
  C 1179.10 1083.96 1204.14 1066.75 1226.43 1046.65
  C 1228.64 1044.66 1230.35 1039.93 1227.56 1038.02
  Z
  M 220.74 1075.28
  C 258.85 1102.02 297.40 1128.26 335.84 1154.58
  Q 336.29 1154.89 336.49 1154.38
  Q 343.62 1136.27 348.84 1120.57
  Q 381.62 1021.82 425.67 928.97
  C 432.51 914.56 439.03 898.38 447.32 883.52
  Q 447.79 882.68 447.01 883.24
  C 387.75 925.73 331.19 971.66 273.00 1015.97
  C 259.08 1026.57 245.46 1038.48 231.06 1049.07
  C 224.26 1054.07 207.91 1066.28 220.74 1075.28
  Z"
/>
<path fill="#004c99" d="
  M 1189.03 332.83
  A 0.29 0.29 0.0 0 1 1189.01 333.33
  C 1150.24 353.96 1110.37 374.49 1077.20 393.45
  Q 1044.63 412.06 998.98 440.68
  C 966.79 460.86 935.53 483.12 903.96 504.31
  C 869.97 527.13 835.79 552.55 797.67 580.16
  Q 784.63 589.61 774.60 597.90
  Q 774.21 598.22 773.88 597.84
  Q 751.35 571.88 728.32 546.44
  Q 725.92 543.79 725.68 538.50
  Q 725.66 538.03 725.99 537.69
  C 829.80 428.71 947.30 337.50 1077.30 261.65
  C 1078.03 261.22 1078.64 260.42 1079.27 259.87
  Q 1079.61 259.57 1079.97 259.84
  C 1111.20 283.87 1144.56 305.32 1178.14 325.88
  Q 1183.29 329.04 1189.03 332.83
  Z"
/>
<path fill="#004c99" d="
  M 346.39 435.57
  C 307.78 414.84 260.75 389.46 217.72 364.33
  Q 217.18 364.02 217.09 363.40
  L 216.26 357.63
  Q 216.18 357.07 216.60 356.71
  Q 232.75 342.71 248.57 328.31
  C 258.30 319.45 272.22 310.20 281.35 303.08
  Q 307.09 283.02 332.26 262.33
  A 0.63 0.61 -51.2 0 1 332.92 262.25
  Q 346.57 269.00 359.42 277.08
  Q 401.43 303.48 442.85 330.79
  C 462.20 343.54 480.81 357.66 499.66 371.15
  Q 507.95 377.08 515.52 383.32
  C 580.35 436.83 633.31 484.05 687.82 539.39
  Q 688.03 539.60 687.83 539.82
  Q 661.85 568.29 637.14 597.86
  Q 636.30 598.87 635.19 598.17
  Q 627.19 593.14 618.40 588.18
  Q 533.14 540.02 447.72 492.15
  Q 440.20 487.94 430.17 482.57
  Q 396.63 464.62 363.82 445.37
  Q 354.94 440.16 346.39 435.57
  Z"
/>
<path fill="#004c99" d="
  M 661.04 610.14
  L 703.31 561.72
  Q 703.72 561.25 704.16 561.70
  L 753.79 612.98
  Q 754.39 613.60 753.72 614.15
  Q 733.39 630.77 714.33 648.83
  A 1.32 1.31 -47.9 0 1 712.62 648.92
  Q 687.40 629.55 661.21 611.54
  Q 660.34 610.94 661.04 610.14
  Z"
/>
<path fill="#004c99" d="
  M 764.48 695.92
  A 0.56 0.56 0.0 0 1 764.50 695.04
  Q 785.60 678.85 805.40 661.09
  Q 805.81 660.72 806.16 661.15
  C 823.23 682.70 837.94 706.32 853.69 728.87
  C 865.45 745.71 875.83 763.72 886.51 781.26
  C 907.23 815.30 924.58 851.49 944.44 886.06
  Q 949.95 895.65 959.19 918.01
  Q 959.27 918.19 959.16 918.02
  C 950.42 904.27 939.26 891.50 930.32 879.44
  C 912.33 855.18 893.67 830.87 873.54 808.35
  Q 827.65 757.01 778.62 708.63
  Q 772.64 702.73 764.48 695.92
  Z"
/>
<path fill="#004c99" d="
  M 663.69 691.77
  A 0.51 0.51 0.0 0 1 663.71 692.56
  Q 610.53 739.43 562.53 791.91
  Q 556.32 798.69 549.38 806.97
  Q 520.60 841.28 509.57 854.82
  Q 486.49 883.13 459.64 920.08
  Q 458.75 921.30 459.42 919.95
  Q 498.74 840.31 548.16 763.67
  Q 555.04 752.99 560.31 746.05
  Q 592.37 703.83 626.93 663.64
  Q 627.27 663.25 627.68 663.57
  L 663.69 691.77
  Z"
/>
<path fill="#004c99" d="
  M 1227.56 1038.02
  C 1230.35 1039.93 1228.64 1044.66 1226.43 1046.65
  C 1204.14 1066.75 1179.10 1083.96 1155.80 1102.87
  C 1134.35 1120.30 1112.28 1136.90 1090.65 1154.11
  Q 1090.28 1154.40 1090.10 1153.97
  Q 1071.84 1110.88 1053.19 1067.98
  C 1043.58 1045.89 1035.93 1023.06 1025.68 1001.26
  C 1017.07 982.95 1010.12 964.93 1000.72 945.95
  C 988.57 921.42 978.63 895.57 965.81 871.45
  Q 960.89 862.20 955.62 853.08
  Q 955.12 852.21 955.95 852.77
  Q 1091.92 945.19 1227.56 1038.02
  Z"
/>
<path fill="#004c99" d="
  M 335.84 1154.58
  C 297.40 1128.26 258.85 1102.02 220.74 1075.28
  C 207.91 1066.28 224.26 1054.07 231.06 1049.07
  C 245.46 1038.48 259.08 1026.57 273.00 1015.97
  C 331.19 971.66 387.75 925.73 447.01 883.24
  Q 447.79 882.68 447.32 883.52
  C 439.03 898.38 432.51 914.56 425.67 928.97
  Q 381.62 1021.82 348.84 1120.57
  Q 343.62 1136.27 336.49 1154.38
  Q 336.29 1154.89 335.84 1154.58
  Z"
/>
</svg>
